<?xml version="1.0" ?><!DOCTYPE svg  PUBLIC '-//W3C//DTD SVG 1.1//EN'  'http://www.w3.org/Graphics/SVG/1.1/DTD/svg11.dtd'><svg enable-background="new 0 0 128 128" id="Слой_1" version="1.1" viewBox="0 0 128 128" xml:space="preserve" xmlns="http://www.w3.org/2000/svg" xmlns:xlink="http://www.w3.org/1999/xlink"><g><g><path d="M96.4,124H31.6c-5.3,0-9-5.3-7.1-10.2L34,87.9c1.1-3,3.9-5,7.1-5h45.7c3.2,0,6,2,7.1,5l9.6,25.9    C105.4,118.7,101.7,124,96.4,124z" fill="#ED9E77"/></g><g><path d="M55,116c-0.7,0-1.2-0.6-1.2-1.2c0-0.7,0.5-1.3,1.2-1.3c0.3,0,0.6,0,0.9,0c0.7,0,1.3,0.5,1.3,1.2    c0,0.7-0.5,1.3-1.2,1.3C55.7,116,55.4,116,55,116C55,116,55,116,55,116z M51.1,115.5c-0.1,0-0.2,0-0.3,0c-0.4-0.1-0.7-0.2-1-0.3    c-0.7-0.2-1-0.9-0.8-1.6s0.9-1,1.6-0.8c0.3,0.1,0.6,0.2,0.9,0.2c0.7,0.2,1.1,0.8,0.9,1.5C52.1,115.2,51.6,115.5,51.1,115.5z     M59.9,115.2c-0.5,0-1-0.3-1.2-0.9c-0.2-0.7,0.2-1.4,0.8-1.6c0.3-0.1,0.6-0.2,0.9-0.3c0.6-0.2,1.4,0.1,1.6,0.7    c0.2,0.6-0.1,1.4-0.7,1.6c-0.3,0.1-0.7,0.2-1,0.3C60.2,115.2,60.1,115.2,59.9,115.2z M46.6,113.4c-0.3,0-0.6-0.1-0.8-0.3    c-0.3-0.2-0.6-0.5-0.8-0.8c-0.5-0.5-0.5-1.3,0-1.8c0.5-0.5,1.3-0.5,1.8,0c0.2,0.2,0.4,0.4,0.6,0.6c0.5,0.4,0.6,1.2,0.2,1.8    C47.3,113.3,46.9,113.4,46.6,113.4z M64.5,113.2c-0.5,0-0.9-0.3-1.1-0.7c-0.3-0.6,0-1.4,0.6-1.7c0.3-0.1,0.6-0.3,0.9-0.4    c0.6-0.3,1.4,0,1.6,0.7c0.3,0.6,0,1.4-0.7,1.6c-0.3,0.1-0.6,0.3-0.9,0.4C64.9,113.2,64.7,113.2,64.5,113.2z M84.5,111.5    c-0.2,0-0.4,0-0.5-0.1c-0.2-0.1-0.3-0.2-0.5-0.2c-0.6-0.3-0.9-1-0.7-1.6c0.3-0.6,1-0.9,1.6-0.7c0.2,0.1,0.4,0.2,0.6,0.3    c0.6,0.3,0.9,1,0.6,1.7C85.4,111.3,84.9,111.5,84.5,111.5z M69.2,111.4c-0.5,0-1-0.3-1.2-0.9c-0.2-0.7,0.2-1.4,0.8-1.6    c0.3-0.1,0.7-0.2,1-0.3c0.7-0.2,1.4,0.2,1.5,0.9c0.2,0.7-0.2,1.4-0.9,1.5c-0.3,0.1-0.6,0.2-0.9,0.3    C69.4,111.4,69.3,111.4,69.2,111.4z M74.1,110.3c-0.6,0-1.1-0.4-1.2-1.1c-0.1-0.7,0.4-1.3,1.1-1.4c0.3,0,0.7-0.1,1-0.1    c0.7-0.1,1.3,0.4,1.4,1.1c0.1,0.7-0.4,1.3-1.1,1.4c-0.3,0-0.6,0.1-0.9,0.1C74.2,110.3,74.1,110.3,74.1,110.3z M80,110.2    c-0.1,0-0.1,0-0.2,0c-0.3,0-0.6-0.1-0.9-0.1c-0.7-0.1-1.2-0.7-1.2-1.3c0.1-0.7,0.6-1.2,1.3-1.2c0.4,0,0.7,0.1,1.1,0.1    c0.7,0.1,1.2,0.7,1.1,1.4C81.2,109.8,80.7,110.2,80,110.2z M44.1,109.2c-0.6,0-1.1-0.4-1.2-1.1c-0.1-0.4-0.1-0.8-0.1-1.2    c0-0.7,0.6-1.2,1.2-1.2s1.2,0.6,1.2,1.2c0,0.3,0,0.5,0.1,0.8c0.1,0.7-0.4,1.3-1.1,1.4C44.2,109.2,44.1,109.2,44.1,109.2z" fill="#F1F7F2"/></g><g><path d="M87.4,117.2c-0.4,0-0.9-0.2-1.1-0.6c-0.3-0.6-0.1-1.4,0.5-1.7l7.1-4c0.6-0.3,1.4-0.1,1.7,0.5    c0.3,0.6,0.1,1.4-0.5,1.7l-7.1,4C87.8,117.2,87.6,117.2,87.4,117.2z" fill="#F1F7F2"/></g><g><path d="M94.4,117.2c-0.2,0-0.4-0.1-0.6-0.2l-7.1-4c-0.6-0.3-0.8-1.1-0.5-1.7c0.3-0.6,1.1-0.8,1.7-0.5l7.1,4    c0.6,0.3,0.8,1.1,0.5,1.7C95.3,117,94.9,117.2,94.4,117.2z" fill="#F1F7F2"/></g><g><path d="M96.4,125.2H31.6c-2.9,0-5.6-1.4-7.3-3.8c-1.7-2.4-2-5.4-1-8.1l9.6-25.9c1.3-3.5,4.6-5.8,8.3-5.8h45.7    c3.7,0,7,2.3,8.3,5.8l9.6,25.9c1,2.7,0.6,5.8-1,8.1C102,123.8,99.3,125.2,96.4,125.2z M41.2,84.2c-2.6,0-5,1.7-6,4.1l-9.6,25.9    c-0.7,2-0.5,4.1,0.7,5.8s3.1,2.7,5.2,2.7h64.8c2.1,0,4-1,5.2-2.7s1.5-3.9,0.7-5.8l-9.6-25.9c-0.9-2.5-3.3-4.1-6-4.1H41.2z" fill="#62345B"/></g><g><path d="M44,69V9h55c2.8,0,5,2.2,5,5v50c0,2.8-2.2,5-5,5H44z" fill="#F5F1E3"/></g><g><path d="M84,29h20V14c0-2.8-2.2-5-5-5H84V29z" fill="#ADA2B5"/></g><g><path d="M84,69h15c2.8,0,5-2.2,5-5V49H84V69z" fill="#ADA2B5"/></g><g><rect fill="#ADA2B5" height="20" width="20" x="64" y="29"/></g><g><path d="M84,50.2H64c-0.7,0-1.2-0.6-1.2-1.2V29c0-0.7,0.6-1.2,1.2-1.2h20c0.7,0,1.2,0.6,1.2,1.2v20    C85.2,49.7,84.7,50.2,84,50.2z M65.2,47.8h17.5V30.2H65.2V47.8z" fill="#62345B"/></g><g><rect fill="#ADA2B5" height="20" width="20" x="44" y="9"/></g><g><rect fill="#ADA2B5" height="20" width="20" x="44" y="49"/></g><g><path d="M104,30.2H84c-0.7,0-1.2-0.6-1.2-1.2V9c0-0.7,0.6-1.2,1.2-1.2h15c3.4,0,6.2,2.8,6.2,6.2v15    C105.2,29.7,104.7,30.2,104,30.2z M85.2,27.8h17.5V14c0-2.1-1.7-3.8-3.8-3.8H85.2V27.8z" fill="#62345B"/></g><g><path d="M99,70.2H84c-0.7,0-1.2-0.6-1.2-1.2V49c0-0.7,0.6-1.2,1.2-1.2h20c0.7,0,1.2,0.6,1.2,1.2v15    C105.2,67.4,102.4,70.2,99,70.2z M85.2,67.8H99c2.1,0,3.8-1.7,3.8-3.8V50.2H85.2V67.8z" fill="#62345B"/></g><g><path d="M64,30.2H44c-0.7,0-1.2-0.6-1.2-1.2V9c0-0.7,0.6-1.2,1.2-1.2h20c0.7,0,1.2,0.6,1.2,1.2v20    C65.2,29.7,64.7,30.2,64,30.2z M45.2,27.8h17.5V10.2H45.2V27.8z" fill="#62345B"/></g><g><path d="M64,70.2H44c-0.7,0-1.2-0.6-1.2-1.2V49c0-0.7,0.6-1.2,1.2-1.2h20c0.7,0,1.2,0.6,1.2,1.2v20    C65.2,69.7,64.7,70.2,64,70.2z M45.2,67.8h17.5V50.2H45.2V67.8z" fill="#62345B"/></g><g><path d="M99,70.2H44c-0.7,0-1.2-0.6-1.2-1.2V9c0-0.7,0.6-1.2,1.2-1.2h55c3.4,0,6.2,2.8,6.2,6.2v50    C105.2,67.4,102.4,70.2,99,70.2z M45.2,67.8H99c2.1,0,3.8-1.7,3.8-3.8V14c0-2.1-1.7-3.8-3.8-3.8H45.2V67.8z" fill="#62345B"/></g><g><path d="M44,104L44,104c-1.1,0-2-0.9-2-2V6c0-1.1,0.9-2,2-2h0c1.1,0,2,0.9,2,2v96C46,103.1,45.1,104,44,104z" fill="#F5F1E3"/></g><g><path d="M44,105.2c-2.1,0-3.8-1.7-3.8-3.8V6c0-1.8,1.5-3.2,3.2-3.2h1c1.8,0,3.2,1.5,3.2,3.2v95.5    C47.8,103.6,46.1,105.2,44,105.2z M43.5,5.2c-0.4,0-0.8,0.3-0.8,0.8v95.5c0,0.7,0.6,1.2,1.2,1.2s1.2-0.6,1.2-1.2V6    c0-0.4-0.3-0.8-0.8-0.8H43.5z" fill="#62345B"/></g></g></svg>