<?xml version="1.0" ?><!DOCTYPE svg  PUBLIC '-//W3C//DTD SVG 1.1//EN'  'http://www.w3.org/Graphics/SVG/1.1/DTD/svg11.dtd'><svg enable-background="new 0 0 128 128" id="Слой_1" version="1.1" viewBox="0 0 128 128" xml:space="preserve" xmlns="http://www.w3.org/2000/svg" xmlns:xlink="http://www.w3.org/1999/xlink"><g><g><path d="M100.5,120.9l-14.4-11.3c-0.8-0.6-2.1-0.6-2.9,0l-17.7,14c-0.8,0.6-2.1,0.6-2.9,0l-17.7-14    c-0.8-0.6-2.1-0.6-2.9,0l-14.4,11.3c-1.4,1.1-3.9,0.1-3.5-1.5l8.9-25c0.1-0.2,0.2-0.5,0.4-0.7l13.6-14.2c0.8-0.9,2.5-0.9,3.3,0    l12.2,12.8c0.8,0.9,2.5,0.9,3.3,0l12.2-12.8c0.8-0.9,2.5-0.9,3.3,0l13.6,14.2c0.2,0.2,0.3,0.4,0.4,0.7l8.9,25    C104.4,121,101.9,122,100.5,120.9z" fill="#CEDD73"/></g><g opacity="0.2"><path d="M87.6,97.7c0,4.2-6.8,7.6-15.2,7.6H64c0-4.2,7.4-15.1,16.4-14.1C84.9,91.8,87.6,95,87.6,97.7z" fill="#62345B"/></g><g><path d="M64,125.2c-0.8,0-1.6-0.3-2.2-0.7l-17.7-14c-0.3-0.3-1-0.3-1.4,0l-14.4,11.3c-0.6,0.5-1.4,0.8-2.2,0.8    c-1.1,0-2.2-0.5-2.8-1.3c-0.5-0.6-0.7-1.4-0.5-2.2c0,0,0-0.1,0-0.1l8.9-25c0.1-0.4,0.3-0.8,0.7-1.1L46,78.7c0.6-0.7,1.6-1,2.6-1h0    c1,0,1.9,0.4,2.6,1l12.2,12.8c0.3,0.3,1.2,0.3,1.5,0l12.2-12.8c0.6-0.7,1.6-1,2.6-1l0,0c1,0,1.9,0.4,2.6,1l13.6,14.2    c0.3,0.3,0.5,0.7,0.7,1.1l8.9,25c0,0,0,0.1,0,0.1c0.2,0.8,0,1.6-0.5,2.2c-0.6,0.8-1.7,1.3-2.8,1.3c-0.8,0-1.6-0.3-2.2-0.8    l-14.4-11.3c-0.3-0.3-1-0.3-1.4,0l-17.7,14C65.6,125,64.8,125.2,64,125.2z M43.4,107.8c0.8,0,1.6,0.3,2.2,0.7l17.7,14    c0.3,0.3,1,0.3,1.4,0l17.7-14c1.2-1,3.2-1,4.5,0l14.4,11.3c0.2,0.2,0.5,0.2,0.7,0.2c0.4,0,0.7-0.2,0.8-0.3l-8.8-25    c0,0,0-0.1,0-0.1c0,0,0,0-0.1-0.1L80.2,80.4c-0.3-0.3-1.2-0.3-1.5,0L66.6,93.2c-0.6,0.7-1.6,1-2.6,1s-1.9-0.4-2.6-1L49.3,80.4    c-0.3-0.3-1.2-0.3-1.5,0L34.2,94.6c-0.1,0.1-0.1,0.1-0.1,0.1c0,0,0,0.1,0,0.1l-8.9,24.9c0.1,0.2,0.5,0.4,0.8,0.4    c0.2,0,0.4,0,0.7-0.2l14.4-11.3C41.7,108.1,42.5,107.8,43.4,107.8z" fill="#62345B"/></g><g opacity="0.2"><path d="M64,93c-0.6,0-1.2-0.2-1.7-0.7L50.2,79.5c-0.1-0.1-0.2-0.2-0.4-0.3c0,0-0.1,0-0.1,0    c-0.1-0.1-0.2-0.1-0.4-0.2c0,0,0,0,0,0c-0.1,0-0.3-0.1-0.4-0.1l0,0c-0.2,0-0.3,0-0.5,0l0,0l-5,29.5l-0.1,0.7c0.3,0,0.5,0,0.8,0.1    c0,0,0,0,0,0c0.1,0,0.2,0.1,0.3,0.1c0,0,0,0,0.1,0c0.1,0.1,0.2,0.1,0.3,0.2l17.7,14c0.4,0.3,0.9,0.5,1.5,0.5V94V93z" fill="#62345B"/></g><g><path d="M64,125.2c-0.7,0-1.2-0.6-1.2-1.2V94c0-0.7,0.6-1.2,1.2-1.2s1.2,0.6,1.2,1.2v30    C65.2,124.7,64.7,125.2,64,125.2z" fill="#62345B"/></g><g opacity="0.2"><path d="M79.6,78.9l5,29.5l0.1,0.7c0.5,0,1,0.2,1.4,0.5l14.4,11.3c1.4,1.1,3.9,0.1,3.5-1.5l-3-11.7l-5.9-13.3    c-0.1-0.2-0.2-0.5-0.4-0.7L81.1,79.5C80.8,79.1,80.2,78.9,79.6,78.9z" fill="#62345B"/></g><g><circle cx="64" cy="17.9" fill="#EE7F8F" r="13.9"/></g><g opacity="0.1"><path d="M77.9,17.9C77.9,10.2,71.7,4,64,4c-0.5,0-0.9,0-1.4,0.1C66.2,5,69.2,15.2,70.9,30    C75.1,27.6,77.9,23.1,77.9,17.9z" fill="#62345B"/></g><g><path d="M64,33c-8.3,0-15.1-6.8-15.1-15.1S55.7,2.8,64,2.8s15.1,6.8,15.1,15.1S72.3,33,64,33z M64,5.2    c-7,0-12.6,5.7-12.6,12.6c0,7,5.7,12.6,12.6,12.6s12.6-5.7,12.6-12.6C76.6,10.9,71,5.2,64,5.2z" fill="#62345B"/></g><g><path d="M78.3,32.6c-0.7-0.2-1.5-0.1-2.1,0.4c-3.3,2.7-7.6,4.3-12.2,4.3s-8.9-1.6-12.2-4.3    c-0.6-0.5-1.4-0.7-2.1-0.4c-7.9,2.5-13.2,10.5-11.7,19.2c0.7,4,1.6,8,2.7,12c0.7,2.4,2.9,4.1,5.4,4.1h2    c1.8,10.8,3.9,21.5,9.5,32.1c1.3,2.4,3.8,4,6.5,4c2.7,0,5.3-1.5,6.5-4c5.6-10.6,7.7-21.4,9.5-32.1h2c2.5,0,4.7-1.7,5.4-4.1    c1.1-4,2-8,2.7-12C91.5,43.1,86.2,35.1,78.3,32.6z" fill="#EE7F8F"/></g><g opacity="0.1"><path d="M78.3,32.6c-0.7-0.2-1.5-0.1-2.1,0.4c-1.4,1.2-3.1,2.1-4.8,2.8c0.4,5.6,0.7,11.8,0.7,18.2    c0,26.5-4.1,48.2-9.3,49.9c0.4,0.1,0.8,0.1,1.2,0.1c2.7,0,5.3-1.5,6.5-4c5.6-10.6,7.7-21.4,9.5-32.1h2c2.5,0,4.7-1.7,5.4-4.1    c1.1-4,2-8,2.7-12C91.5,43.1,86.2,35.1,78.3,32.6z" fill="#62345B"/></g><g><path d="M64,105.2c-3.2,0-6.1-1.8-7.6-4.6c-5.4-10.3-7.5-20.4-9.4-31.5h-1c-3.1,0-5.8-2.1-6.6-5    c-1.1-4-2-8.1-2.7-12.2c-1.5-9,3.9-17.8,12.6-20.6c1.1-0.4,2.4-0.1,3.3,0.6c3.3,2.7,7.2,4.1,11.4,4.1s8.1-1.4,11.4-4.1    c0.9-0.7,2.2-1,3.3-0.6C87.4,34.1,92.8,43,91.3,52c-0.7,4-1.6,8.1-2.7,12.2c-0.8,3-3.5,5-6.6,5h-1c-1.9,11.1-4,21.2-9.4,31.5    C70.1,103.5,67.2,105.2,64,105.2z M50.3,33.7c-0.1,0-0.2,0-0.3,0c-7.5,2.4-12.2,10-10.9,17.8c0.7,4,1.6,8,2.6,11.9    c0.5,1.9,2.2,3.2,4.2,3.2h2c0.6,0,1.1,0.4,1.2,1c1.9,11.3,4,21.5,9.4,31.8c1.1,2,3.2,3.3,5.4,3.3s4.4-1.3,5.4-3.3    c5.4-10.2,7.4-20.5,9.4-31.8c0.1-0.6,0.6-1,1.2-1h2c1.9,0,3.7-1.3,4.2-3.2c1.1-4,2-8,2.6-11.9c1.3-7.8-3.4-15.4-10.9-17.8    c-0.3-0.1-0.7,0-1,0.2c-3.7,3-8.3,4.6-13,4.6s-9.3-1.6-13-4.6C50.8,33.8,50.6,33.7,50.3,33.7z" fill="#62345B"/></g></g></svg>